<svg width="64" height="61" viewBox="0 0 64 61" fill="none" xmlns="http://www.w3.org/2000/svg">
<rect width="11.981" height="2.54915" transform="matrix(0.707287 -0.706926 0.707287 0.706926 16.3188 12.2925)" fill="#6E63F1"/>
<rect width="11.981" height="2.54915" transform="matrix(-0.707287 -0.706926 -0.707287 0.706926 47.7593 12.2925)" fill="#6E63F1"/>
<path d="M18.996 36.571C21.3823 35.0006 25.753 33.7677 25.753 33.7677V45.1085L32.1275 51.7346L38.502 45.1085V33.5128C38.502 33.5128 42.6882 34.6887 45.004 36.3162C47.4535 38.0375 50.3586 41.7954 50.3586 41.7954L46.0239 46.1279L37.4821 54.5379L32.3825 60.1446L26.5179 54.5379L18.1036 46.1279L14.0239 41.2857C14.0239 41.2857 16.7606 38.0422 18.996 36.571Z" fill="white"/>
<path d="M25.7529 17.8395V21.9171L18.1035 14.0167L31.9999 0L46.0238 13.8893L38.5019 21.5348V17.8395L31.9999 11.086L25.7529 17.8395Z" fill="white"/>
<rect width="6.12857" height="35.268" transform="matrix(0.707288 -0.706926 0.707288 0.706926 1.02002 5.35181)" fill="white"/>
<rect width="6.12856" height="35.0704" transform="matrix(0.707288 0.706926 0.707288 -0.706926 33.8408 25.8115)" fill="white"/>
<path d="M5.35468 1.01941L1.02002 5.35186V1.01941H5.35468Z" fill="white"/>
<path d="M62.98 5.35186L58.6453 1.01941L62.98 1.01941L62.98 5.35186Z" fill="white"/>
<path d="M15.4264 33.3854L3.44238 24.8479L13.464 35.6251L13.7691 35.9339L15.4264 33.3854Z" fill="white"/>
<path d="M48.4466 33.3561L60.4307 24.7205L50.409 35.6216L50.104 35.9338L48.4466 33.3561Z" fill="white"/>
<path d="M18.9615 36.6727C21.3597 35.0975 25.7517 33.8602 25.7517 33.8602H26.008V30.2807L1.02494 5.35193L5.12472 21.3319L0 19.5422L3.45919 24.9114L15.3742 33.4767L13.7086 35.7778L4.2279 32.5818L12.0431 44.5988C12.0431 44.5988 15.5254 38.9296 18.9615 36.6727Z" fill="#4338CA"/>
<path d="M45.0385 36.4178C42.6403 34.8427 38.2483 33.6054 38.2483 33.6054H37.992V30.0258L62.9751 5.09705L58.8753 21.077L64 19.2873L60.5408 24.6566L48.6258 33.2218L50.2914 35.523L59.7721 32.327L51.9569 44.3439C51.9569 44.3439 48.4746 38.6747 45.0385 36.4178Z" fill="#4338CA"/>
<rect x="25.7529" y="17.5846" width="12.749" height="27.5238" fill="#6E63F1"/>
<path d="M32.1273 10.9585L38.5311 17.6483H25.7236L32.1273 10.9585Z" fill="#6E63F1"/>
<path d="M32.1276 51.7345L25.7238 45.0447L38.5313 45.0447L32.1276 51.7345Z" fill="#6E63F1"/>
<rect width="11.981" height="2.54915" transform="matrix(0.707287 0.706926 0.707287 -0.706926 16.3188 47.9298)" fill="#6E63F1"/>
<rect width="11.981" height="2.54915" transform="matrix(-0.707287 0.706926 -0.707287 -0.706926 47.7593 47.9298)" fill="#6E63F1"/>
</svg>
