<svg width="96" height="96" viewBox="0 0 96 96" fill="none" xmlns="http://www.w3.org/2000/svg">
<rect width="96" height="96" rx="10" fill="url(#paint0_linear_211_69)"/>
<path d="M36.6545 53.324C34.9265 53.324 33.2945 53.12 31.7585 52.712C30.2465 52.28 28.9385 51.656 27.8345 50.84C27.4505 50.576 27.2225 50.264 27.1505 49.904C27.0785 49.544 27.1145 49.208 27.2585 48.896C27.4265 48.584 27.6665 48.38 27.9785 48.284C28.2905 48.164 28.6505 48.236 29.0585 48.5C30.1385 49.292 31.2905 49.856 32.5145 50.192C33.7385 50.528 35.1185 50.696 36.6545 50.696C38.8145 50.696 40.4105 50.3 41.4425 49.508C42.4985 48.692 43.0265 47.624 43.0265 46.304C43.0265 45.248 42.6425 44.408 41.8745 43.784C41.1305 43.16 39.8705 42.668 38.0945 42.308L34.3505 41.552C32.0945 41.072 30.4025 40.292 29.2745 39.212C28.1705 38.108 27.6185 36.644 27.6185 34.82C27.6185 33.308 28.0025 31.988 28.7705 30.86C29.5625 29.732 30.6545 28.856 32.0465 28.232C33.4385 27.608 35.0465 27.296 36.8705 27.296C38.3825 27.296 39.7865 27.512 41.0825 27.944C42.4025 28.352 43.5905 28.976 44.6465 29.816C44.9825 30.08 45.1745 30.392 45.2225 30.752C45.2945 31.088 45.2465 31.4 45.0785 31.688C44.9105 31.976 44.6705 32.168 44.3585 32.264C44.0465 32.336 43.6745 32.24 43.2425 31.976C42.2825 31.232 41.2745 30.704 40.2185 30.392C39.1865 30.08 38.0585 29.924 36.8345 29.924C34.9385 29.924 33.4265 30.368 32.2985 31.256C31.1705 32.12 30.6065 33.272 30.6065 34.712C30.6065 35.864 30.9545 36.776 31.6505 37.448C32.3705 38.12 33.5345 38.612 35.1425 38.924L38.8865 39.716C41.3105 40.22 43.0985 40.988 44.2505 42.02C45.4265 43.028 46.0145 44.408 46.0145 46.16C46.0145 47.576 45.6305 48.824 44.8625 49.904C44.1185 50.984 43.0385 51.824 41.6225 52.424C40.2305 53.024 38.5745 53.324 36.6545 53.324ZM61.5749 53.324C59.0789 53.324 56.9429 52.796 55.1669 51.74C53.3909 50.684 52.0229 49.184 51.0629 47.24C50.1269 45.296 49.6589 42.98 49.6589 40.292C49.6589 37.628 50.1269 35.324 51.0629 33.38C52.0229 31.436 53.3909 29.936 55.1669 28.88C56.9429 27.824 59.0789 27.296 61.5749 27.296C63.0629 27.296 64.4789 27.512 65.8229 27.944C67.1669 28.376 68.3309 28.988 69.3149 29.78C69.7229 30.068 69.9509 30.404 69.9989 30.788C70.0709 31.172 70.0109 31.52 69.8189 31.832C69.6269 32.12 69.3509 32.312 68.9909 32.408C68.6549 32.48 68.2709 32.36 67.8389 32.048C66.1349 30.68 64.0709 29.996 61.6469 29.996C58.7909 29.996 56.6069 30.896 55.0949 32.696C53.5829 34.496 52.8269 37.028 52.8269 40.292C52.8269 43.58 53.5829 46.124 55.0949 47.924C56.6069 49.724 58.7909 50.624 61.6469 50.624C64.0709 50.624 66.1589 49.928 67.9109 48.536C68.3429 48.248 68.7269 48.14 69.0629 48.212C69.4229 48.284 69.6869 48.464 69.8549 48.752C70.0469 49.04 70.1189 49.364 70.0709 49.724C70.0229 50.084 69.8189 50.408 69.4589 50.696C68.4269 51.56 67.2389 52.22 65.8949 52.676C64.5509 53.108 63.1109 53.324 61.5749 53.324ZM36.9266 72.112C35.5173 72.112 34.3693 71.7713 33.4826 71.09C33.3239 70.978 33.2493 70.8473 33.2586 70.698C33.2773 70.5393 33.3473 70.4227 33.4686 70.348C33.5899 70.2733 33.7299 70.292 33.8886 70.404C34.3179 70.7307 34.7706 70.9687 35.2466 71.118C35.7319 71.258 36.2919 71.328 36.9266 71.328C37.8133 71.328 38.4759 71.1553 38.9146 70.81C39.3626 70.4647 39.5866 70.012 39.5866 69.452C39.5866 68.9853 39.4233 68.6213 39.0966 68.36C38.7793 68.0987 38.2519 67.8933 37.5146 67.744L36.1006 67.45C35.2233 67.2727 34.5653 66.974 34.1266 66.554C33.6973 66.134 33.4826 65.574 33.4826 64.874C33.4826 64.3047 33.6273 63.8053 33.9166 63.376C34.2153 62.9467 34.6259 62.6153 35.1486 62.382C35.6713 62.1393 36.2733 62.018 36.9546 62.018C37.5613 62.018 38.1166 62.102 38.6206 62.27C39.1339 62.438 39.6006 62.704 40.0206 63.068C40.1606 63.18 40.2213 63.3107 40.2026 63.46C40.1839 63.6093 40.1139 63.7213 39.9926 63.796C39.8806 63.8613 39.7453 63.8333 39.5866 63.712C39.1946 63.3947 38.7839 63.166 38.3546 63.026C37.9253 62.8767 37.4586 62.802 36.9546 62.802C36.1706 62.802 35.5406 62.9887 35.0646 63.362C34.5979 63.7353 34.3646 64.2347 34.3646 64.86C34.3646 65.3547 34.5139 65.7467 34.8126 66.036C35.1113 66.316 35.5919 66.5213 36.2546 66.652L37.6826 66.946C38.6253 67.142 39.3253 67.436 39.7826 67.828C40.2399 68.2107 40.4686 68.738 40.4686 69.41C40.4686 69.942 40.3239 70.4133 40.0346 70.824C39.7546 71.2253 39.3486 71.5427 38.8166 71.776C38.2846 72 37.6546 72.112 36.9266 72.112ZM44.7445 72.112C43.9885 72.112 43.4192 71.9067 43.0365 71.496C42.6632 71.0853 42.4765 70.4973 42.4765 69.732V65.896H41.4405C41.1698 65.896 41.0345 65.7793 41.0345 65.546C41.0345 65.322 41.1698 65.21 41.4405 65.21H42.4765V63.46C42.4765 63.1707 42.6212 63.026 42.9105 63.026C43.1905 63.026 43.3305 63.1707 43.3305 63.46V65.21H45.2205C45.4818 65.21 45.6125 65.322 45.6125 65.546C45.6125 65.7793 45.4818 65.896 45.2205 65.896H43.3305V69.62C43.3305 70.1893 43.4472 70.6233 43.6805 70.922C43.9138 71.2207 44.3012 71.37 44.8425 71.37C45.0292 71.37 45.1832 71.3513 45.3045 71.314C45.4258 71.2673 45.5332 71.244 45.6265 71.244C45.7945 71.244 45.8785 71.3607 45.8785 71.594C45.8785 71.6687 45.8598 71.7433 45.8225 71.818C45.7945 71.8833 45.7385 71.93 45.6545 71.958C45.5518 71.9953 45.4118 72.028 45.2345 72.056C45.0572 72.0933 44.8938 72.112 44.7445 72.112ZM48.972 72.112C48.5146 72.112 48.104 72.0233 47.74 71.846C47.3853 71.6687 47.1006 71.426 46.886 71.118C46.6806 70.81 46.578 70.4647 46.578 70.082C46.578 69.578 46.704 69.186 46.956 68.906C47.208 68.6167 47.6326 68.4113 48.23 68.29C48.8273 68.1687 49.6486 68.108 50.694 68.108H51.128V67.604C51.128 66.9787 51.002 66.526 50.75 66.246C50.498 65.9567 50.0966 65.812 49.546 65.812C49.1913 65.812 48.846 65.8587 48.51 65.952C48.174 66.0453 47.824 66.1947 47.46 66.4C47.292 66.4933 47.1566 66.498 47.054 66.414C46.9606 66.3207 46.914 66.204 46.914 66.064C46.9233 65.9147 47.0026 65.8027 47.152 65.728C47.5346 65.5133 47.9313 65.3547 48.342 65.252C48.7526 65.14 49.1493 65.084 49.532 65.084C50.3533 65.084 50.96 65.294 51.352 65.714C51.7533 66.134 51.954 66.778 51.954 67.646V71.65C51.954 71.9393 51.8233 72.084 51.562 72.084C51.282 72.084 51.142 71.9393 51.142 71.65V70.782C50.9553 71.202 50.6706 71.5287 50.288 71.762C49.9146 71.9953 49.476 72.112 48.972 72.112ZM49.084 71.426C49.4853 71.426 49.8353 71.3327 50.134 71.146C50.442 70.95 50.6846 70.684 50.862 70.348C51.0393 70.012 51.128 69.6293 51.128 69.2V68.738H50.708C49.868 68.738 49.21 68.7753 48.734 68.85C48.2673 68.9247 47.9406 69.0553 47.754 69.242C47.5673 69.4287 47.474 69.6853 47.474 70.012C47.474 70.432 47.6186 70.7727 47.908 71.034C48.1973 71.2953 48.5893 71.426 49.084 71.426ZM56.7484 72.112C55.9924 72.112 55.4231 71.9067 55.0404 71.496C54.6671 71.0853 54.4804 70.4973 54.4804 69.732V65.896H53.4444C53.1737 65.896 53.0384 65.7793 53.0384 65.546C53.0384 65.322 53.1737 65.21 53.4444 65.21H54.4804V63.46C54.4804 63.1707 54.6251 63.026 54.9144 63.026C55.1944 63.026 55.3344 63.1707 55.3344 63.46V65.21H57.2244C57.4857 65.21 57.6164 65.322 57.6164 65.546C57.6164 65.7793 57.4857 65.896 57.2244 65.896H55.3344V69.62C55.3344 70.1893 55.4511 70.6233 55.6844 70.922C55.9177 71.2207 56.3051 71.37 56.8464 71.37C57.0331 71.37 57.1871 71.3513 57.3084 71.314C57.4297 71.2673 57.5371 71.244 57.6304 71.244C57.7984 71.244 57.8824 71.3607 57.8824 71.594C57.8824 71.6687 57.8637 71.7433 57.8264 71.818C57.7984 71.8833 57.7424 71.93 57.6584 71.958C57.5557 71.9953 57.4157 72.028 57.2384 72.056C57.0611 72.0933 56.8977 72.112 56.7484 72.112ZM61.0879 72.112C60.6679 72.112 60.2479 72.056 59.8279 71.944C59.4172 71.832 59.0252 71.6407 58.6519 71.37C58.5305 71.2953 58.4745 71.1927 58.4839 71.062C58.4932 70.922 58.5445 70.8147 58.6379 70.74C58.7405 70.6653 58.8665 70.6747 59.0159 70.768C59.3799 71.0107 59.7345 71.1787 60.0799 71.272C60.4252 71.3653 60.7705 71.412 61.1159 71.412C61.6945 71.412 62.1285 71.3093 62.4179 71.104C62.7165 70.8893 62.8659 70.5953 62.8659 70.222C62.8659 69.9327 62.7679 69.704 62.5719 69.536C62.3759 69.368 62.0679 69.2327 61.6479 69.13L60.4299 68.85C59.2819 68.5887 58.7079 67.996 58.7079 67.072C58.7079 66.4747 58.9412 65.994 59.4079 65.63C59.8745 65.266 60.4905 65.084 61.2559 65.084C61.6572 65.084 62.0445 65.1447 62.4179 65.266C62.8005 65.3873 63.1319 65.574 63.4119 65.826C63.5332 65.9193 63.5845 66.0313 63.5659 66.162C63.5472 66.2927 63.4819 66.3907 63.3699 66.456C63.2672 66.5213 63.1459 66.5027 63.0059 66.4C62.7352 66.1947 62.4505 66.0453 62.1519 65.952C61.8532 65.8493 61.5499 65.798 61.2419 65.798C60.7005 65.798 60.2805 65.91 59.9819 66.134C59.6925 66.358 59.5479 66.6613 59.5479 67.044C59.5479 67.3333 59.6365 67.5667 59.8139 67.744C59.9912 67.9213 60.2805 68.0567 60.6819 68.15L61.8999 68.43C62.5065 68.57 62.9592 68.78 63.2579 69.06C63.5565 69.3307 63.7059 69.6993 63.7059 70.166C63.7059 70.7727 63.4679 71.2487 62.9919 71.594C62.5159 71.9393 61.8812 72.112 61.0879 72.112Z" fill="white"/>
<defs>
<linearGradient id="paint0_linear_211_69" x1="2.71232e-06" y1="-0.857145" x2="96" y2="96" gradientUnits="userSpaceOnUse">
<stop stop-color="#A18CD1"/>
<stop offset="1" stop-color="#FBC2EB"/>
</linearGradient>
</defs>
</svg>
